<svg id="Laag_1" data-name="Laag 1" xmlns="http://www.w3.org/2000/svg" viewBox="0 0 1280 640"><defs><style>.cls-1,.cls-2{fill:#fff;}.cls-2{fill-rule:evenodd;}</style></defs><path class="cls-1" d="M49.5,328.71V314.88H84.8c0,.45.06,1,.08,1.49s0,1.32,0,2.39q0,17-9,26.38t-25.28,9.38a39.22,39.22,0,0,1-14.24-2.41,31.48,31.48,0,0,1-11.14-7.36A33.49,33.49,0,0,1,18,333.57a36.12,36.12,0,0,1-2.58-13.52,35.63,35.63,0,0,1,2.52-13.57,33.18,33.18,0,0,1,7.51-11.14A33.63,33.63,0,0,1,36.79,288a38.42,38.42,0,0,1,13.84-2.47,36.94,36.94,0,0,1,17.13,3.82A33.54,33.54,0,0,1,80.3,300.78l-15.58,7.47a19,19,0,0,0-6.28-5.69,16.4,16.4,0,0,0-7.82-1.87q-8.07,0-12.71,5.37c-3.09,3.6-4.64,8.49-4.64,14.71s1.55,11.2,4.64,14.79S45.24,341,50.62,341A18.79,18.79,0,0,0,62,337.62a12.75,12.75,0,0,0,5.35-8.91Z"/><path class="cls-1" d="M182.41,353V287h18.81c7.34,0,12.47.34,15.36,1a19.82,19.82,0,0,1,7.5,3.39,18,18,0,0,1,5.47,6.89,22,22,0,0,1,1.9,9.23q0,7.65-3.76,12.44t-11,6.37l18,26.58H214.4l-15.12-25.82V353Zm16.87-34.76h3.32q5.81,0,8.48-2c1.78-1.32,2.67-3.4,2.67-6.21q0-5-2.49-7.05c-1.67-1.4-4.45-2.09-8.38-2.09h-3.6V318.2Z"/><polygon class="cls-1" points="328.08 352.96 328.08 287.04 368.45 287.04 368.45 301.52 345.59 301.52 345.59 312.95 367.15 312.95 367.15 327.05 345.59 327.05 345.59 338.21 368.45 338.21 368.45 352.96 328.08 352.96 328.08 352.96"/><path class="cls-1" d="M649.43,328.34H667.3l-6.72-21.75c-.2-.66-.49-1.72-.84-3.2s-.83-3.36-1.4-5.67c-.38,1.61-.77,3.17-1.15,4.64s-.75,2.88-1.14,4.23l-6.62,21.75ZM624.25,353,647,287h22.51L692.28,353H674.41l-3.33-11.8H645.56L642.13,353Z"/><path class="cls-1" d="M785.13,353V287h18.8c7.34,0,12.48.34,15.36,1a19.75,19.75,0,0,1,7.5,3.39,17.81,17.81,0,0,1,5.47,6.89,21.88,21.88,0,0,1,1.91,9.23q0,7.65-3.77,12.44c-2.52,3.2-6.17,5.32-11,6.37l18,26.58H817.11L802,327.14V353ZM802,318.2h3.32q5.81,0,8.48-2c1.79-1.32,2.68-3.4,2.68-6.21q0-5-2.49-7.05c-1.68-1.4-4.46-2.09-8.39-2.09H802V318.2Z"/><polygon class="cls-1" points="930.79 352.96 930.79 287.04 971.17 287.04 971.17 301.52 948.31 301.52 948.31 312.95 969.86 312.95 969.86 327.05 948.31 327.05 948.31 338.21 971.17 338.21 971.17 352.96 930.79 352.96 930.79 352.96"/><path class="cls-1" d="M466.89,353V287h17.33l24.92,33.9a46.89,46.89,0,0,1,2.35,4.18c1.11,2.07,2.31,4.56,3.63,7.45-.36-2.74-.62-5.16-.79-7.3s-.24-4-.24-5.67V287h17.24V353H514.09l-24.91-34a36.78,36.78,0,0,1-2.41-4.16c-1.11-2.09-2.29-4.55-3.58-7.37.35,2.76.62,5.2.78,7.34s.25,4,.25,5.67V353Z"/><path class="cls-2" d="M1175.29,301.15c6.29-1.21,11-7.63,13.6-12.75,3.32-6.53,4.32-13.67,4.23-21.92-.16-14-8.32-30.93-21.33-31.09-7.78-.1-13,5.81-15.89,10.38-11.08,17.7-6.09,50.17,12,55.45.22,7.88-.2,16.61-.29,24.33l-.89,74.53c0,5,.1,7.12,5.57,7,4.85-.13,4.24-4.16,4.19-8.42-.11-8.31-.22-16.54-.3-24.84-.22-24.21-.65-48.43-.88-72.64Z"/><path class="cls-2" d="M1204.41,233.11c-1.68.56-1.36,2-1.36,4v38.14c0,6.3-1,15,2.13,19.53,2.33,3.4,7.6,5,9,13,.48,2.83.2,7.3.15,10.35l-.92,75.45c-.07,5.89-1.46,12.16,2.73,13.27a9,9,0,0,0,5-.28c2.91-1.49,2.16-4.81,2.11-8.58l-.92-75.55c-.11-9.25-1.53-16.65,4.21-22.92,2-2.15,5.82-3.76,6.8-9.59.45-2.61.23-48.68.19-54.3,0-1.72-.61-2.95-2.58-2.63s-1.66,2.19-1.65,4.11v38.14c0,1.89.3,3.62-.94,4.58a2.36,2.36,0,0,1-3.51-.75c-.65-1.27-.3-14.1-.3-16.05V241.27c0-2.75,1-8.9-2.39-8.23-1.67.33-1.48,1.92-1.47,3.82v38.39c0,1.82.32,3.54-.93,4.53a2.37,2.37,0,0,1-3.57-.83c-.56-1.22-.2-38.65-.23-43.32,0-1.63-.72-3.12-2.54-2.55s-1.34,2.66-1.34,4.27l.07,32.77c0,1.8-.1,3.57-.06,5.38s.35,3.47-1,4.39a2.4,2.4,0,0,1-3.46-.91c-.52-1.1-.23-4.07-.25-5.44-.27-12.31.32-26.18,0-38.15,0-1.82-1-2.9-2.89-2.28Z"/><path class="cls-2" d="M1246.52,323.17c.23,4-.18,18.09-.24,23.23-.06,5.74-1,56.9-.4,58.54.56,1.45,1.8,2.05,3.75,2.07,7,.07,6-1.22,5.88-12,0-3.93-.1-7.79-.14-11.73l-.68-58.93c0-2,0-3.91-.07-5.87,0-2.44.74-2.72,1.79-4.47,6-10,8.57-25.56,8.16-39.29-.43-14.38-3.78-27.34-9.65-38-.65-1.19-1.43-2.75-2.5-3.35a3.35,3.35,0,0,0-4.17.89c-1.15,1.52-.75,8.67-.78,11.16-.31,22.93-.06,48.2-.85,70.56l.15,2c-.65,1.1-.18,3.66-.25,5.16Z"/><polygon class="cls-2" points="1061.72 181.8 1069.68 181.8 1069.68 458.2 1061.72 458.2 1061.72 181.8 1061.72 181.8"/></svg>